<svg xmlns="http://www.w3.org/2000/svg" width="173" height="199" viewBox="0 0 173 199">
  <metadata><?xpacket begin="﻿" id="W5M0MpCehiHzreSzNTczkc9d"?>
<x:xmpmeta xmlns:x="adobe:ns:meta/" x:xmptk="Adobe XMP Core 5.6-c142 79.160924, 2017/07/13-01:06:39        ">
   <rdf:RDF xmlns:rdf="http://www.w3.org/1999/02/22-rdf-syntax-ns#">
      <rdf:Description rdf:about=""/>
   </rdf:RDF>
</x:xmpmeta>
                                                                                                    
                                                                                                    
                                                                                                    
                                                                                                    
                                                                                                    
                                                                                                    
                                                                                                    
                                                                                                    
                                                                                                    
                                                                                                    
                                                                                                    
                                                                                                    
                                                                                                    
                                                                                                    
                                                                                                    
                                                                                                    
                                                                                                    
                                                                                                    
                                                                                                    
                                                                                                    
                           
<?xpacket end="w"?></metadata>
<defs>
    <style>
      .cls-1 {
        fill: #00bfff;
      }

      .cls-1, .cls-2 {
        fill-rule: evenodd;
      }

      .cls-2 {
        fill: #ff1493;
      }
    </style>
  </defs>
  <path id="_15" data-name="15" class="cls-1" d="M61.2,45.731q0-12.624-3.519-17.7T43.948,22.961q-2.07,0-7.107-.1t-7.8-.1q-7.038,0-10.971,4.451A16.411,16.411,0,0,0,14.14,38.486q0,8.49,4.278,12.109a16.278,16.278,0,0,0,10.9,3.623L29.6,131.429q0.136,11.178,1.863,17.8t5.037,9.108a14.125,14.125,0,0,0,8.694,2.484,13.057,13.057,0,0,0,12.144-7.142q4-7.142,4-23.908Zm77.21,7.142q1.863-3.416,1.863-11.489,0-10.969-2.346-14.7t-8.832-3.726H89.9q-8.833,0-12.351,4.244T74.031,40.142V77.195q0,14.283,2.346,19.044T85.9,101q25.943,0,25.944,11.592,0,6.418-3.036,8.9t-9.384,2.484q-2.623,0-8.9-2.277t-8.763-2.277q-9.522,0-9.522,20.286,0,11.595,6.9,17.077t23.46,5.486q20.421,0,30.5-13.041t10.074-36.639q0-28.358-14.49-37.26-9.522-5.589-25.254-5.589L103.7,56.288h28.29Q136.545,56.288,138.408,52.872Z"/>
  <path id="star" class="cls-2" d="M26.474,175.141a1.426,1.426,0,0,1,.82-0.75,1.6,1.6,0,0,1,1.078,0,1.426,1.426,0,0,1,.82.75l3.047,6.187,6.844,0.985a1.422,1.422,0,0,1,.961.562,1.567,1.567,0,0,1,.328,1.031,1.442,1.442,0,0,1-.445.985l-4.969,4.828,1.172,6.844a1.479,1.479,0,0,1-.211,1.054,1.378,1.378,0,0,1-.867.633,1.442,1.442,0,0,1-1.078-.141l-6.141-3.187-6.141,3.187a1.442,1.442,0,0,1-1.078.141,1.378,1.378,0,0,1-.867-0.633,1.479,1.479,0,0,1-.211-1.054l1.172-6.844-4.969-4.828a1.441,1.441,0,0,1-.445-0.985,1.566,1.566,0,0,1,.328-1.031,1.422,1.422,0,0,1,.961-0.562l6.844-.985Z"/>
  <path id="puzzle" class="cls-2" d="M163.141,11.561a2.865,2.865,0,0,1-1.045,1.311,4.536,4.536,0,0,1-1.5.646,8.338,8.338,0,0,1-1.881.19V5.348a13.481,13.481,0,0,1,2.147.133,3.947,3.947,0,0,1,1.444.551,2.215,2.215,0,0,1,.931,1.235A7.445,7.445,0,0,1,163.5,9.49,5.329,5.329,0,0,1,163.141,11.561Zm-4.427,7.125h2.166a15.753,15.753,0,0,0,5.738-.988,9.4,9.4,0,0,0,4.1-2.983,7.4,7.4,0,0,0,1.558-4.693,9.249,9.249,0,0,0-.855-4.009,8.184,8.184,0,0,0-2.394-3A11.564,11.564,0,0,0,165.4,1.149a14.988,14.988,0,0,0-4.56-.665h-6.764a4.776,4.776,0,0,0-3.306,1.121,4.383,4.383,0,0,0-1.254,3.439V21.08q0,3.04,1.1,4.237a4.488,4.488,0,0,0,3.458,1.2,4.389,4.389,0,0,0,3.5-1.311q1.14-1.311,1.14-4.389V18.686Zm12.293,17.062a4.592,4.592,0,0,0-3.306-1.064,8.134,8.134,0,0,0-1.691.152,4.253,4.253,0,0,0-1.368.57,2.471,2.471,0,0,0-.988,1.292,6.283,6.283,0,0,0-.323,2.166V51.29a7.119,7.119,0,0,1-.095,1.292,3.19,3.19,0,0,1-.38.988,1.658,1.658,0,0,1-.893.722,4.5,4.5,0,0,1-1.558.228,3.679,3.679,0,0,1-1.558-.285,2.079,2.079,0,0,1-.969-1.007,4.693,4.693,0,0,1-.4-1.938V38.9q0-2.546-1.159-3.382a5.787,5.787,0,0,0-3.4-.836,3.97,3.97,0,0,0-3.021,1.273,4.605,4.605,0,0,0-1.2,3.287V50.568q0,5.207,2.831,7.79t8.873,2.584q6.345,0,9.025-2.413t2.679-7.961V39.244A4.706,4.706,0,0,0,171.007,35.748Zm-12.92,53.01,11.1-10.222q0.228-.228.8-0.817t0.722-.741q0.151-.151.513-0.608a2.384,2.384,0,0,0,.437-0.722q0.077-.265.247-0.741a3.73,3.73,0,0,0,.209-1.007q0.037-.532.038-1.216a3.258,3.258,0,0,0-.228-1.14,5.26,5.26,0,0,0-.684-1.235,3.279,3.279,0,0,0-1.33-1.026,4.8,4.8,0,0,0-2.014-.4H152.349a4.731,4.731,0,0,0-2.755.665,2.634,2.634,0,0,0-.931,2.3,2.741,2.741,0,0,0,1.14,2.489,6.987,6.987,0,0,0,3.686.741H161.2l-9.69,8.816q-1.064,1.1-1.463,1.577a11.107,11.107,0,0,0-.893,1.273,4.452,4.452,0,0,0-.627,1.539,10.925,10.925,0,0,0-.133,1.881,4.316,4.316,0,0,0,.722,2.375,5.279,5.279,0,0,0,1.805,1.748,4.261,4.261,0,0,0,2.147.627h14.25a10.3,10.3,0,0,0,4.218-.608,2.562,2.562,0,0,0,1.216-2.546,4.409,4.409,0,0,0-.171-1.33,2.133,2.133,0,0,0-.608-0.931,2.576,2.576,0,0,0-1.2-.57,8.851,8.851,0,0,0-1.9-.171H158.087Zm0,34.2,11.1-10.222q0.228-.228.8-0.817t0.722-.741q0.151-.151.513-0.608a2.378,2.378,0,0,0,.437-0.722q0.077-.265.247-0.741a3.726,3.726,0,0,0,.209-1.007q0.037-.531.038-1.216a3.262,3.262,0,0,0-.228-1.14,5.258,5.258,0,0,0-.684-1.235,3.279,3.279,0,0,0-1.33-1.026,4.8,4.8,0,0,0-2.014-.4H152.349a4.731,4.731,0,0,0-2.755.665,2.634,2.634,0,0,0-.931,2.3,2.741,2.741,0,0,0,1.14,2.489,6.987,6.987,0,0,0,3.686.741H161.2l-9.69,8.816q-1.064,1.1-1.463,1.577a11.107,11.107,0,0,0-.893,1.273,4.452,4.452,0,0,0-.627,1.539,10.925,10.925,0,0,0-.133,1.881,4.316,4.316,0,0,0,.722,2.375,5.274,5.274,0,0,0,1.805,1.748,4.261,4.261,0,0,0,2.147.627h14.25a10.3,10.3,0,0,0,4.218-.608,2.562,2.562,0,0,0,1.216-2.546,4.409,4.409,0,0,0-.171-1.33,2.136,2.136,0,0,0-.608-0.931,2.576,2.576,0,0,0-1.2-.57,8.851,8.851,0,0,0-1.9-.171H158.087Zm8.075,40.356a6.864,6.864,0,0,0,3.344-.608q1.026-.607,1.026-2.66a3.144,3.144,0,0,0-.893-2.66,5.5,5.5,0,0,0-3.1-.646h-6.5V141.5q0-2.546-1.083-3.382a5.5,5.5,0,0,0-3.363-.836,4.046,4.046,0,0,0-3.116,1.273,4.647,4.647,0,0,0-1.178,3.287v16.074a7.765,7.765,0,0,0,.532,3.154,3.3,3.3,0,0,0,1.6,1.691,6.866,6.866,0,0,0,2.812.551h9.918Zm-7.068,18.772V177.64h8.284a5.387,5.387,0,0,0,3.059-.665,3.377,3.377,0,0,0-.152-4.807,6.266,6.266,0,0,0-3.287-.684H154.686q-4.332,0-4.332,4.56V192.08q0,3.04,1.045,4.237a4.142,4.142,0,0,0,3.287,1.2H167a5.989,5.989,0,0,0,3.287-.722,2.832,2.832,0,0,0,1.083-2.546,2.483,2.483,0,0,0-.931-2.223,5.658,5.658,0,0,0-3.059-.627l-8.246-.038V187.33h6.156a6.333,6.333,0,0,0,3.021-.551,1.948,1.948,0,0,0,.969-1.843,2.653,2.653,0,0,0-.817-2.2,4.682,4.682,0,0,0-2.831-.646h-6.536Z"/>
  <path id="GAME" class="cls-1" d="M64.92,182.646q0.648,0.7,3.024.7a8.57,8.57,0,0,0,2.772-.4,3.958,3.958,0,0,0,1.71-1.026,3.778,3.778,0,0,0,.774-1.26,4.023,4.023,0,0,0,.216-1.314,5.231,5.231,0,0,0-.342-1.872,4.9,4.9,0,0,0-1.152-1.71,7.218,7.218,0,0,0-2.016-1.386,12.4,12.4,0,0,0-3.042-.918,22.731,22.731,0,0,0-4.14-.342,12.955,12.955,0,0,0-9.36,3.384q-3.529,3.384-3.528,9.216a12.385,12.385,0,0,0,1.818,6.786,11.371,11.371,0,0,0,4.932,4.3,16.758,16.758,0,0,0,7.11,1.44,11.887,11.887,0,0,0,7.524-2.466,7.2,7.2,0,0,0,3.168-5.778,3.8,3.8,0,0,0-1.152-3.168,5.154,5.154,0,0,0-3.24-.9H65.64a3.367,3.367,0,0,0-2.34.648,2.555,2.555,0,0,0-.684,1.944,2.042,2.042,0,0,0,.288,1.062,2.188,2.188,0,0,0,.918.81,3.227,3.227,0,0,0,1.494.324,1.8,1.8,0,0,1-1.026,1.692,2.259,2.259,0,0,1-.99.216,3.6,3.6,0,0,1-2.934-1.674q-1.242-1.674-1.242-5.346,0-3.96,1.08-5.652a3.084,3.084,0,0,1,2.592-1.692q1.476,0,1.476,1.116Q64.272,181.944,64.92,182.646Zm29.322-3.1a2.316,2.316,0,0,1,.99,1.26,6.793,6.793,0,0,1,.36,2.43v4.32H89.616v-4.248a5.188,5.188,0,0,1,.738-3.2,2.784,2.784,0,0,1,2.286-.9A3.336,3.336,0,0,1,94.242,179.55Zm1.35,14.886a3.435,3.435,0,0,0,.972,2.7,5.053,5.053,0,0,0,3.348.864,3.2,3.2,0,0,0,2.5-.9,6.238,6.238,0,0,0,1.152-3.186,52.257,52.257,0,0,0,.342-7.038,18.343,18.343,0,0,0-.72-5.328,12.236,12.236,0,0,0-1.854-3.87,10.9,10.9,0,0,0-2.646-2.5,10.559,10.559,0,0,0-2.988-1.422,11.017,11.017,0,0,0-2.988-.414,10.42,10.42,0,0,0-2.5.306,14,14,0,0,0-2.556.918,8.681,8.681,0,0,0-2.43,1.71,13.222,13.222,0,0,0-2,2.538,12.578,12.578,0,0,0-1.4,3.51,18.6,18.6,0,0,0-.522,4.554q0,2.844.126,4.7a29.864,29.864,0,0,0,.36,3.168,4.988,4.988,0,0,0,.72,2,2.792,2.792,0,0,0,1.134.972A4.1,4.1,0,0,0,85.3,198a5.053,5.053,0,0,0,3.348-.864,3.435,3.435,0,0,0,.972-2.7v-1.908h5.976v1.908Zm37.044-.18a3.676,3.676,0,0,0,1.062,2.862,3.915,3.915,0,0,0,2.646.882q4.462,0,4.5-3.564v-15.66a6.55,6.55,0,0,0-.666-3.114,4.063,4.063,0,0,0-1.818-1.8,6.312,6.312,0,0,0-2.772-.558q-3.456,0-4.788,2.592l-5.112,10.368-4.824-10.548a7.371,7.371,0,0,0-.81-1.206,3.551,3.551,0,0,0-1.242-.864,4.65,4.65,0,0,0-1.944-.378q-2.989,0-4.248,1.4a6.07,6.07,0,0,0-1.26,4.176v15.7a3.886,3.886,0,0,0,.72,2.754,3.2,3.2,0,0,0,2.3.7,2.817,2.817,0,0,0,2.106-.72,3.15,3.15,0,0,0,.7-2.268V184.824l4.176,7.6a16.672,16.672,0,0,0,2.052,2.934,2.61,2.61,0,0,0,1.944.81,2.509,2.509,0,0,0,1.548-.486,4.586,4.586,0,0,0,1.224-1.638l4.5-9.216v9.432Zm24.875-10.872v-4.212h7.848a5.109,5.109,0,0,0,2.9-.63,3.2,3.2,0,0,0-.144-4.554A5.935,5.935,0,0,0,165,173.34H153.335q-4.1,0-4.1,4.32v15.192q0,2.88.99,4.014A3.924,3.924,0,0,0,153.335,198H165a5.679,5.679,0,0,0,3.114-.684,2.683,2.683,0,0,0,1.026-2.412,2.353,2.353,0,0,0-.882-2.106,5.36,5.36,0,0,0-2.9-.594l-7.812-.036v-3.816h5.832a6.007,6.007,0,0,0,2.862-.522,1.847,1.847,0,0,0,.918-1.746,2.513,2.513,0,0,0-.774-2.088,4.431,4.431,0,0,0-2.682-.612h-6.192Z"/>
  <path class="cls-1" d="M1,4V2H146V4H1Z"/>
  <path id="Shape_1_copy" data-name="Shape 1 copy" class="cls-1" d="M4,8V6H146V8H4Z"/>
  <path class="cls-2" d="M0,2H2V199H0V2Z"/>
  <path id="Shape_2_copy" data-name="Shape 2 copy" class="cls-2" d="M4,6H6V199H4V6Z"/>
</svg>
